<?xml version="1.0" encoding="UTF-8"?>
<svg id="_图层_1" data-name="图层_1" xmlns="http://www.w3.org/2000/svg" version="1.1" viewBox="0 0 1500 300">
  <!-- Generator: Adobe Illustrator 29.1.0, SVG Export Plug-In . SVG Version: 2.1.0 Build 142)  -->
  <defs>
    <style>
      .st0 {
        fill: #c60022;
      }

      .st1 {
        fill: #e60012;
      }
    </style>
  </defs>
  <path class="st0" d="M1195.2,121.6v31.6h-50.2v4.7h45.9v30.2h-45.9v4.3h57.6v46.8h-93.1c-15.1,0-36.1-2-52.5-14.1-8.8,7.8-20.6,13.5-35.7,16.1v-56.5c10-2.2,14.3-12.5,14.3-27.1h48.6c0,8.8-1,19-3.7,29,2.2,2,5.1,3.3,8.8,4.1v-37.6h-59.8v-31.6h-7.8v-57.2h62.9v-6.1h56.5v6.1h61.9v57.2h-7.8ZM1153.2,108.7h-81.5v4.7h81.5v-4.7Z"/>
  <g>
    <path class="st0" d="M1337.7,143v45.7h52.3v51.2h-163.1v-51.2h52.1v-45.7h-62.3v-53.3h62.3v-31h58.6v31h62.3v53.3h-62.3Z"/>
    <path class="st0" d="M559,179.8c0,37.2,15.7,57.8,52.5,57.8h57.6v-57h-46.5c-3.5,0-4.5-2.2-4.5-5.7s1.6-5.5,4.5-5.5h46.5v-41.6h-55.3c-36.5,0-54.9,20.8-54.9,51.9Z"/>
    <polygon class="st0" points="503.7 61.4 503.5 67.3 490.9 67.3 490.9 120.8 501.5 120.8 497 237.2 550.9 237.2 555.4 120.8 557.4 67.3 557.6 61.4 503.7 61.4"/>
    <g>
      <path class="st0" d="M1008,115.5v-51.7h-5.1c0-1.8.2-3.7.2-5.7h-37.2c0,17.4-1,32-3.5,46.7v-12h-4.7v-5.5h4.5v-29.4h-58.2v112.1h58.2v-29.4h-4.7v-5.7h4.9v-4.7h3.1v39.8h42.5v-43.7h-12.5c1-3.1,1.8-6.7,2.5-10.8h10ZM925.3,87.3h13.1v6.7h-13.1v-6.7ZM938.4,140.6h-13.1v-6.7h13.1v6.7ZM944.7,117.1h-19.4v-5.5h19.4v5.5Z"/>
      <path class="st0" d="M882.9,170h17.8v-37.6h-14.7v-3.1h12.2v-14.9c1.2.4,2.2.8,3.3,1.2v-48c-13.3-2.9-15.7-6.7-18.6-9.4h-39.6c-2.5,3.1-9.4,8.6-18.2,9.4v48c1.2-.4,2.4-.8,3.3-1.2v14.9h12.9v3.1h-16.3v37.6h19.6v34.7h-19.6v35.9h38c15.5,0,20.9.8,29.7-1.6l.5-35.8c-2.1.6-3,.5-10.4.9v-34.1ZM855.4,99.4c2.8-4.2,5.5-8.7,7.9-13.6,2.6,4.9,5.3,9.5,8.1,13.6h-16Z"/>
      <polygon class="st0" points="887.2 173.3 883.9 201.4 898.4 201.4 901.7 173.3 887.2 173.3"/>
      <path class="st0" d="M1003.9,173.3h-98.4v28.4h-3.9v-.2l-.6,36.5v2.2h107v-38.4h-4.1v-28.4ZM977.4,208.4h-8v-10.7h8v10.7ZM939.5,208.4h-8v-10.7h8v10.7ZM958.5,208.4h-8v-10.7h8v10.7Z"/>
      <path class="st0" d="M842.5,201.4c0-10.4-2-23.3-3.3-28h-14.9c1.4,3.9,2.9,15.7,2.9,28h15.3Z"/>
    </g>
    <path class="st0" d="M251.6,133l3.7-10.8h-44.5l-4.1,8.4h-8V61.8h-53.3v69.2c-23.7,2.5-44.9,20.4-44.9,51.9s18.4,56.3,47.6,56.3,46.3-8.4,65.7-35.3v35.3h19c35.9,0,53.9-17.4,53.9-56.3s-12.7-44.5-35.1-50ZM158.3,186.5c-5.7,0-7.6-3.1-7.6-6.1s2.9-6.7,8.4-6.7h20.6c-7.1,9.4-15.7,12.7-21.4,12.7ZM225.5,193.7h-5.5c3.3-6.1,6.5-12.5,9.2-20,5.9,1,9,4.5,9,9.6s-4.3,10.4-12.7,10.4Z"/>
    <polygon class="st0" points="361 71.8 361.2 63.2 308.4 63.2 308.2 71.8 296.3 71.8 296.3 124.1 306.7 124.1 303 237 355.5 237 359.2 124.1 408.9 124.1 408.9 72.3 361 71.8"/>
  </g>
  <g>
    <path class="st1" d="M763.9,196.1h-5.8v-23.9c-2.8,18-13,23.9-26.7,23.9s-29.3-10.2-29.3-32.4v-19.1c0-25.8,17.5-38.2,37.6-38.2h15.7c23.4,0,38.4,16,38.4,37.9v16.5c0,22.6-11.1,35.3-29.7,35.3ZM736,137.2c-4.9.9-7.7,3.9-7.7,9.4v14.2c0,3.7,1.7,4.5,3.6,4.5s4.1-1.6,4.1-4.5v-23.6ZM766.3,146.9c0-5-1.6-8.5-7.4-9.7v27.3h1.3c3.8,0,6.1-1.5,6.1-6.6v-10.9Z"/>
    <polygon class="st1" points="565.8 67.3 563.6 120.8 672.5 120.8 672.5 67.3 565.8 67.3"/>
    <polygon class="st1" points="104.8 68.5 104.8 117.9 137.2 117.9 137.3 68.5 104.8 68.5"/>
    <rect class="st1" x="207" y="68.5" width="71.9" height="48.2"/>
    <path class="st1" d="M473.7,121h3.3v-54.3h-6.9c-34.5,0-51.6,14.4-57.4,40.4l-1,5.5-1,11.6c0,2-.2,3.9-.2,5.9v4.9c-28.2.4-49.4,18-49.4,47.6v5.1c0,32.7,22.7,51.2,51.4,51.2h3.7c32.9,0,49.4-18.2,50.4-46.1h10.4v-54.7h-12.5v-6.7c0-6.7,2.4-10.4,9.2-10.4ZM416.5,181.4c0,5.7-2.9,9-7.6,9h-2c-3.7,0-6.5-2-6.5-6.1v-2c0-2.9,2.4-6.1,6.5-6.1h9.6v5.1Z"/>
  </g>
</svg>